<svg width="82" height="24" viewBox="0 0 82 24" fill="none" xmlns="http://www.w3.org/2000/svg">
<path d="M9.8 14.2H14.2L15 16.425C15.0667 16.6083 15.175 16.75 15.325 16.85C15.475 16.95 15.6417 17 15.825 17C16.1417 17 16.3877 16.871 16.563 16.613C16.7383 16.355 16.7673 16.084 16.65 15.8L13.225 6.6C13.1583 6.41667 13.046 6.271 12.888 6.163C12.73 6.055 12.5507 6.00067 12.35 6H11.65C11.45 6 11.271 6.05433 11.113 6.163C10.955 6.27167 10.8423 6.41733 10.775 6.6L7.35 15.825C7.23333 16.1083 7.26267 16.375 7.438 16.625C7.61333 16.875 7.859 17 8.175 17C8.35833 17 8.525 16.946 8.675 16.838C8.825 16.73 8.93333 16.584 9 16.4L9.8 14.2ZM10.35 12.6L11.95 8.05H12.05L13.65 12.6H10.35ZM12 22C10.6167 22 9.31667 21.7373 8.1 21.212C6.88334 20.6867 5.825 19.9743 4.925 19.075C4.025 18.1757 3.31267 17.1173 2.788 15.9C2.26333 14.6827 2.00067 13.3827 2 12C1.99933 10.6173 2.262 9.31733 2.788 8.1C3.314 6.88267 4.02633 5.82433 4.925 4.925C5.82367 4.02567 6.882 3.31333 8.1 2.788C9.318 2.26267 10.618 2 12 2C13.382 2 14.682 2.26267 15.9 2.788C17.118 3.31333 18.1763 4.02567 19.075 4.925C19.9737 5.82433 20.6863 6.88267 21.213 8.1C21.7397 9.31733 22.002 10.6173 22 12C21.998 13.3827 21.7353 14.6827 21.212 15.9C20.6887 17.1173 19.9763 18.1757 19.075 19.075C18.1737 19.9743 17.1153 20.687 15.9 21.213C14.6847 21.739 13.3847 22.0013 12 22Z" fill="#455DEE"/>
<path d="M32.41 15.37H28.045L27.295 17.5H25.51L29.245 7.06H31.225L34.96 17.5H33.16L32.41 15.37ZM31.93 13.975L30.235 9.13L28.525 13.975H31.93ZM44.069 9.235V17.5H42.359V16.525C42.089 16.865 41.734 17.135 41.294 17.335C40.864 17.525 40.404 17.62 39.914 17.62C39.264 17.62 38.679 17.485 38.159 17.215C37.649 16.945 37.244 16.545 36.944 16.015C36.654 15.485 36.509 14.845 36.509 14.095V9.235H38.204V13.84C38.204 14.58 38.389 15.15 38.759 15.55C39.129 15.94 39.634 16.135 40.274 16.135C40.914 16.135 41.419 15.94 41.789 15.55C42.169 15.15 42.359 14.58 42.359 13.84V9.235H44.069ZM48.3202 10.63V15.205C48.3202 15.515 48.3902 15.74 48.5302 15.88C48.6802 16.01 48.9302 16.075 49.2802 16.075H50.3302V17.5H48.9802C48.2102 17.5 47.6202 17.32 47.2102 16.96C46.8002 16.6 46.5952 16.015 46.5952 15.205V10.63H45.6202V9.235H46.5952V7.18H48.3202V9.235H50.3302V10.63H48.3202ZM55.4913 17.635C54.7113 17.635 54.0063 17.46 53.3763 17.11C52.7463 16.75 52.2513 16.25 51.8913 15.61C51.5313 14.96 51.3513 14.21 51.3513 13.36C51.3513 12.52 51.5363 11.775 51.9063 11.125C52.2763 10.475 52.7813 9.975 53.4213 9.625C54.0613 9.275 54.7763 9.1 55.5663 9.1C56.3563 9.1 57.0713 9.275 57.7113 9.625C58.3513 9.975 58.8563 10.475 59.2263 11.125C59.5963 11.775 59.7813 12.52 59.7813 13.36C59.7813 14.2 59.5913 14.945 59.2113 15.595C58.8313 16.245 58.3113 16.75 57.6513 17.11C57.0013 17.46 56.2813 17.635 55.4913 17.635ZM55.4913 16.15C55.9313 16.15 56.3413 16.045 56.7213 15.835C57.1113 15.625 57.4263 15.31 57.6663 14.89C57.9063 14.47 58.0263 13.96 58.0263 13.36C58.0263 12.76 57.9113 12.255 57.6813 11.845C57.4513 11.425 57.1463 11.11 56.7663 10.9C56.3863 10.69 55.9763 10.585 55.5363 10.585C55.0963 10.585 54.6863 10.69 54.3063 10.9C53.9363 11.11 53.6413 11.425 53.4213 11.845C53.2013 12.255 53.0913 12.76 53.0913 13.36C53.0913 14.25 53.3163 14.94 53.7663 15.43C54.2263 15.91 54.8013 16.15 55.4913 16.15ZM65.6417 9.1C66.2917 9.1 66.8717 9.235 67.3817 9.505C67.9017 9.775 68.3067 10.175 68.5967 10.705C68.8867 11.235 69.0317 11.875 69.0317 12.625V17.5H67.3367V12.88C67.3367 12.14 67.1517 11.575 66.7817 11.185C66.4117 10.785 65.9067 10.585 65.2667 10.585C64.6267 10.585 64.1167 10.785 63.7367 11.185C63.3667 11.575 63.1817 12.14 63.1817 12.88V17.5H61.4717V9.235H63.1817V10.18C63.4617 9.84 63.8167 9.575 64.2467 9.385C64.6867 9.195 65.1517 9.1 65.6417 9.1ZM72.0829 8.14C71.7729 8.14 71.5129 8.035 71.3029 7.825C71.0929 7.615 70.9879 7.355 70.9879 7.045C70.9879 6.735 71.0929 6.475 71.3029 6.265C71.5129 6.055 71.7729 5.95 72.0829 5.95C72.3829 5.95 72.6379 6.055 72.8479 6.265C73.0579 6.475 73.1629 6.735 73.1629 7.045C73.1629 7.355 73.0579 7.615 72.8479 7.825C72.6379 8.035 72.3829 8.14 72.0829 8.14ZM72.9229 9.235V17.5H71.2129V9.235H72.9229ZM78.708 13.315L81.378 17.5H79.443L77.658 14.695L75.978 17.5H74.193L76.863 13.435L74.193 9.235H76.128L77.913 12.04L79.593 9.235H81.378L78.708 13.315Z" fill="#455DEE"/>
</svg>
