<svg width="76" height="24" viewBox="0 0 76 24" fill="none" xmlns="http://www.w3.org/2000/svg">
<path d="M3.5 11.616H4.545M4.545 11.616H20.455M4.545 11.616C4.557 11.5647 4.57033 11.5137 4.585 11.463C4.63845 11.3035 4.70191 11.1475 4.775 10.996L6.322 7.516C6.627 6.829 6.78 6.484 7.022 6.232C7.236 6.009 7.498 5.839 7.788 5.734C8.117 5.616 11.747 7 12.5 7L15.754 5.616C16.506 5.616 16.884 5.616 17.212 5.734C17.502 5.839 17.764 6.009 17.977 6.232C18.219 6.484 18.372 6.828 18.677 7.515L20.23 11.008C20.329 11.231 20.38 11.345 20.415 11.463C20.4297 11.513 20.443 11.564 20.455 11.616M4.545 11.616C4.53244 11.6735 4.52243 11.7316 4.515 11.79C4.5 11.916 4.5 12.042 4.5 12.296V17.616M20.455 11.616H21.5M20.455 11.616C20.4683 11.674 20.4773 11.732 20.484 11.79C20.5 11.914 20.5 12.04 20.5 12.29V17.616M4.5 17.616H8.5M4.5 17.616V18.616C4.5 19.1464 4.71071 19.6551 5.08579 20.0302C5.46086 20.4053 5.96957 20.616 6.5 20.616C7.03043 20.616 7.53914 20.4053 7.91421 20.0302C8.28929 19.6551 8.5 19.1464 8.5 18.616V17.616M20.5 17.616H16.5M20.5 17.616V18.616C20.5 19.1464 20.2893 19.6551 19.9142 20.0302C19.5391 20.4053 19.0304 20.616 18.5 20.616C17.9696 20.616 17.4609 20.4053 17.0858 20.0302C16.7107 19.6551 16.5 19.1464 16.5 18.616V17.616M16.5 17.616H8.5" stroke="#455DEE" stroke-width="2" stroke-linecap="round" stroke-linejoin="round"/>
<path d="M25.892 16.5L29.636 8.1H31.556L35.312 16.5H33.272L30.2 9.084H30.968L27.884 16.5H25.892ZM27.764 14.7L28.28 13.224H32.6L33.128 14.7H27.764ZM38.6583 16.596C38.1223 16.596 37.6423 16.492 37.2183 16.284C36.8023 16.076 36.4783 15.76 36.2463 15.336C36.0143 14.904 35.8983 14.356 35.8983 13.692V10.044H37.7703V13.416C37.7703 13.952 37.8823 14.348 38.1063 14.604C38.3383 14.852 38.6623 14.976 39.0783 14.976C39.3663 14.976 39.6223 14.916 39.8463 14.796C40.0703 14.668 40.2463 14.476 40.3743 14.22C40.5023 13.956 40.5663 13.628 40.5663 13.236V10.044H42.4383V16.5H40.6623V14.724L40.9863 15.24C40.7703 15.688 40.4503 16.028 40.0263 16.26C39.6103 16.484 39.1543 16.596 38.6583 16.596ZM46.8126 16.596C46.0526 16.596 45.4606 16.404 45.0366 16.02C44.6126 15.628 44.4006 15.048 44.4006 14.28V8.616H46.2726V14.256C46.2726 14.528 46.3446 14.74 46.4886 14.892C46.6326 15.036 46.8286 15.108 47.0766 15.108C47.3726 15.108 47.6246 15.028 47.8326 14.868L48.3366 16.188C48.1446 16.324 47.9126 16.428 47.6406 16.5C47.3766 16.564 47.1006 16.596 46.8126 16.596ZM43.4046 11.628V10.188H47.8806V11.628H43.4046ZM52.2602 16.596C51.5722 16.596 50.9602 16.452 50.4242 16.164C49.8962 15.876 49.4762 15.484 49.1642 14.988C48.8602 14.484 48.7082 13.912 48.7082 13.272C48.7082 12.624 48.8602 12.052 49.1642 11.556C49.4762 11.052 49.8962 10.66 50.4242 10.38C50.9602 10.092 51.5722 9.948 52.2602 9.948C52.9402 9.948 53.5482 10.092 54.0842 10.38C54.6202 10.66 55.0402 11.048 55.3442 11.544C55.6482 12.04 55.8002 12.616 55.8002 13.272C55.8002 13.912 55.6482 14.484 55.3442 14.988C55.0402 15.484 54.6202 15.876 54.0842 16.164C53.5482 16.452 52.9402 16.596 52.2602 16.596ZM52.2602 15.06C52.5722 15.06 52.8522 14.988 53.1002 14.844C53.3482 14.7 53.5442 14.496 53.6882 14.232C53.8322 13.96 53.9042 13.64 53.9042 13.272C53.9042 12.896 53.8322 12.576 53.6882 12.312C53.5442 12.048 53.3482 11.844 53.1002 11.7C52.8522 11.556 52.5722 11.484 52.2602 11.484C51.9482 11.484 51.6682 11.556 51.4202 11.7C51.1722 11.844 50.9722 12.048 50.8202 12.312C50.6762 12.576 50.6042 12.896 50.6042 13.272C50.6042 13.64 50.6762 13.96 50.8202 14.232C50.9722 14.496 51.1722 14.7 51.4202 14.844C51.6682 14.988 51.9482 15.06 52.2602 15.06ZM60.9755 9.948C61.4875 9.948 61.9435 10.052 62.3435 10.26C62.7515 10.46 63.0715 10.772 63.3035 11.196C63.5355 11.612 63.6515 12.148 63.6515 12.804V16.5H61.7795V13.092C61.7795 12.572 61.6635 12.188 61.4315 11.94C61.2075 11.692 60.8875 11.568 60.4715 11.568C60.1755 11.568 59.9075 11.632 59.6675 11.76C59.4355 11.88 59.2515 12.068 59.1155 12.324C58.9875 12.58 58.9235 12.908 58.9235 13.308V16.5H57.0515V10.044H58.8395V11.832L58.5035 11.292C58.7355 10.86 59.0675 10.528 59.4995 10.296C59.9315 10.064 60.4235 9.948 60.9755 9.948ZM65.3484 16.5V10.044H67.2204V16.5H65.3484ZM66.2844 9.144C65.9404 9.144 65.6604 9.044 65.4444 8.844C65.2284 8.644 65.1204 8.396 65.1204 8.1C65.1204 7.804 65.2284 7.556 65.4444 7.356C65.6604 7.156 65.9404 7.056 66.2844 7.056C66.6284 7.056 66.9084 7.152 67.1244 7.344C67.3404 7.528 67.4484 7.768 67.4484 8.064C67.4484 8.376 67.3404 8.636 67.1244 8.844C66.9164 9.044 66.6364 9.144 66.2844 9.144ZM68.1418 16.5L71.0338 12.708L70.9978 13.74L68.2258 10.044H70.3258L72.0778 12.456L71.2858 12.48L73.0978 10.044H75.0898L72.3058 13.704V12.696L75.1858 16.5H73.0618L71.2258 13.932L72.0058 14.04L70.1818 16.5H68.1418Z" fill="#455DEE" fill-opacity="0.9"/>
</svg>
