<svg width="80" height="24" viewBox="0 0 80 24" fill="none" xmlns="http://www.w3.org/2000/svg">
<path d="M9.8 14.2H14.2L15 16.425C15.0667 16.6083 15.175 16.75 15.325 16.85C15.475 16.95 15.6417 17 15.825 17C16.1417 17 16.3877 16.871 16.563 16.613C16.7383 16.355 16.7673 16.084 16.65 15.8L13.225 6.6C13.1583 6.41667 13.046 6.271 12.888 6.163C12.73 6.055 12.5507 6.00067 12.35 6H11.65C11.45 6 11.271 6.05433 11.113 6.163C10.955 6.27167 10.8423 6.41733 10.775 6.6L7.35 15.825C7.23333 16.1083 7.26267 16.375 7.438 16.625C7.61333 16.875 7.859 17 8.175 17C8.35833 17 8.525 16.946 8.675 16.838C8.825 16.73 8.93333 16.584 9 16.4L9.8 14.2ZM10.35 12.6L11.95 8.05H12.05L13.65 12.6H10.35ZM12 22C10.6167 22 9.31667 21.7373 8.1 21.212C6.88334 20.6867 5.825 19.9743 4.925 19.075C4.025 18.1757 3.31267 17.1173 2.788 15.9C2.26333 14.6827 2.00067 13.3827 2 12C1.99933 10.6173 2.262 9.31733 2.788 8.1C3.314 6.88267 4.02633 5.82433 4.925 4.925C5.82367 4.02567 6.882 3.31333 8.1 2.788C9.318 2.26267 10.618 2 12 2C13.382 2 14.682 2.26267 15.9 2.788C17.118 3.31333 18.1763 4.02567 19.075 4.925C19.9737 5.82433 20.6863 6.88267 21.213 8.1C21.7397 9.31733 22.002 10.6173 22 12C21.998 13.3827 21.7353 14.6827 21.212 15.9C20.6887 17.1173 19.9763 18.1757 19.075 19.075C18.1737 19.9743 17.1153 20.687 15.9 21.213C14.6847 21.739 13.3847 22.0013 12 22Z" fill="#455DEE"/>
<path d="M25.3 18L28.915 7.2H30.775L34.39 18H33.0025L29.62 7.98H30.04L26.6875 18H25.3ZM27.04 15.4725V14.22H32.65V15.4725H27.04ZM38.8223 18.21C38.3023 18.21 37.8548 18.1275 37.4798 17.9625C37.1098 17.7975 36.8023 17.5775 36.5573 17.3025C36.3123 17.0275 36.1198 16.7225 35.9798 16.3875C35.8398 16.0525 35.7398 15.71 35.6798 15.36C35.6248 15.01 35.5973 14.6825 35.5973 14.3775V9.9H36.9473V13.9575C36.9473 14.3375 36.9823 14.705 37.0523 15.06C37.1223 15.415 37.2398 15.735 37.4048 16.02C37.5748 16.305 37.7998 16.53 38.0798 16.695C38.3648 16.86 38.7198 16.9425 39.1448 16.9425C39.4798 16.9425 39.7848 16.885 40.0598 16.77C40.3348 16.655 40.5698 16.485 40.7648 16.26C40.9598 16.03 41.1098 15.74 41.2148 15.39C41.3198 15.04 41.3723 14.6325 41.3723 14.1675L42.2498 14.4375C42.2498 15.2175 42.1073 15.89 41.8223 16.455C41.5423 17.02 41.1448 17.455 40.6298 17.76C40.1198 18.06 39.5173 18.21 38.8223 18.21ZM41.5223 18V15.8325H41.3723V9.9H42.7148V18H41.5223ZM49.3371 18C48.8571 18.095 48.3821 18.1325 47.9121 18.1125C47.4471 18.0975 47.0321 18.005 46.6671 17.835C46.3021 17.66 46.0246 17.39 45.8346 17.025C45.6746 16.705 45.5871 16.3825 45.5721 16.0575C45.5621 15.7275 45.5571 15.355 45.5571 14.94V7.65H46.8921V14.88C46.8921 15.21 46.8946 15.4925 46.8996 15.7275C46.9096 15.9625 46.9621 16.165 47.0571 16.335C47.2371 16.655 47.5221 16.8425 47.9121 16.8975C48.3071 16.9525 48.7821 16.9375 49.3371 16.8525V18ZM43.9146 11.0025V9.9H49.3371V11.0025H43.9146ZM54.0947 18.225C53.2897 18.225 52.5947 18.0425 52.0097 17.6775C51.4297 17.3125 50.9822 16.8075 50.6672 16.1625C50.3522 15.5175 50.1947 14.7775 50.1947 13.9425C50.1947 13.0925 50.3547 12.3475 50.6747 11.7075C50.9947 11.0675 51.4472 10.57 52.0322 10.215C52.6172 9.855 53.3047 9.675 54.0947 9.675C54.9047 9.675 55.6022 9.8575 56.1872 10.2225C56.7722 10.5825 57.2197 11.085 57.5297 11.73C57.8447 12.37 58.0022 13.1075 58.0022 13.9425C58.0022 14.7875 57.8447 15.5325 57.5297 16.1775C57.2147 16.8175 56.7647 17.32 56.1797 17.685C55.5947 18.045 54.8997 18.225 54.0947 18.225ZM54.0947 16.9575C54.9347 16.9575 55.5597 16.6775 55.9697 16.1175C56.3797 15.5575 56.5847 14.8325 56.5847 13.9425C56.5847 13.0275 56.3772 12.3 55.9622 11.76C55.5472 11.215 54.9247 10.9425 54.0947 10.9425C53.5297 10.9425 53.0647 11.07 52.6997 11.325C52.3347 11.58 52.0622 11.9325 51.8822 12.3825C51.7022 12.8325 51.6122 13.3525 51.6122 13.9425C51.6122 14.8525 51.8222 15.5825 52.2422 16.1325C52.6622 16.6825 53.2797 16.9575 54.0947 16.9575ZM65.421 18V13.9425C65.421 13.5575 65.386 13.1875 65.316 12.8325C65.251 12.4775 65.1335 12.16 64.9635 11.88C64.7985 11.595 64.5735 11.37 64.2885 11.205C64.0085 11.04 63.6535 10.9575 63.2235 10.9575C62.8885 10.9575 62.5835 11.015 62.3085 11.13C62.0385 11.24 61.806 11.41 61.611 11.64C61.416 11.87 61.2635 12.16 61.1535 12.51C61.0485 12.855 60.996 13.2625 60.996 13.7325L60.1185 13.4625C60.1185 12.6775 60.2585 12.005 60.5385 11.445C60.8235 10.88 61.221 10.4475 61.731 10.1475C62.246 9.8425 62.851 9.69 63.546 9.69C64.071 9.69 64.5185 9.7725 64.8885 9.9375C65.2585 10.1025 65.566 10.3225 65.811 10.5975C66.056 10.8675 66.2485 11.1725 66.3885 11.5125C66.5285 11.8475 66.626 12.19 66.681 12.54C66.741 12.885 66.771 13.2125 66.771 13.5225V18H65.421ZM59.646 18V9.9H60.846V12.0675H60.996V18H59.646ZM68.8709 8.4675V7.0875H70.2059V8.4675H68.8709ZM68.8709 18V9.9H70.2059V18H68.8709ZM71.5563 18L74.6538 13.905L71.6238 9.9H73.2138L75.4338 12.87L77.6313 9.9H79.2213L76.1913 13.905L79.2963 18H77.6988L75.4338 14.94L73.1538 18H71.5563Z" fill="#1E1E1E"/>
</svg>
